<svg xmlns="http://www.w3.org/2000/svg" xml:space="preserve" viewBox="0 0 527.4 129.1"><style>.st1{fill:#fff}.st3{fill:#ffb547}.st7{fill:#ff9a1c}.st8{fill:#595959}</style><g id="clearbags"><linearGradient id="SVGID_1_" x1="449.919" x2="527.415" y1="45.269" y2="45.269" gradientTransform="matrix(1 0 0 -1 0 117.79)" gradientUnits="userSpaceOnUse"><stop offset=".33" style="stop-color:#ffb547"/><stop offset="1" style="stop-color:#ff9012"/></linearGradient><path d="M515.2 30.6c2 2.2 3.8 4.7 5.3 7.3 8.4 14.1 9.2 31.8 2.1 46.6-8.4 17.6-33.2 33.1-53.5 29.4-9-1.6-16.8-5.4-18.8-15.4-1.2-6 .2-14.6 4.8-18.8 6-5.5 12.4-6.6 20.1-8.7 6.3-1.8 13.8-4.7 17.8-6.5 5-2.2 8.4-3.6 13.7-9.7 3.5-4.1 6-8.9 7.5-14 .8-3.2 1.1-6.7 1-10.2" style="fill:url(#SVGID_1_)"/><path d="M470.8 97.5c4.4-2.6 5.9-8.4 3.2-12.8-2.6-4.4-8.4-5.9-12.8-3.2-4.4 2.6-5.9 8.4-3.2 12.8s8.3 5.8 12.8 3.2" class="st1"/><linearGradient id="SVGID_00000085950916608765223930000017341823149209285029_" x1="469.26" x2="512.239" y1="84.417" y2="84.417" gradientTransform="matrix(1 0 0 -1 0 117.79)" gradientUnits="userSpaceOnUse"><stop offset=".33" style="stop-color:#fbb040"/><stop offset="1" style="stop-color:#f7941d"/></linearGradient><path d="M480.6 42.8c-3.2 2.8-5.4 5.8-11.3 8 0 0 10 .6 19.7-3.5 10.9-4.5 16.4-7.3 18.7-7.7 1.2-.2 2.7-.1 4 .5.9-4.2.6-7.8-.2-11.1-5.7-5.4-14.9-11.3-29.5-13 0 0 6.9 9.5 7.5 12 .6 2.6-5.6 11.9-8.9 14.8" style="fill:url(#SVGID_00000085950916608765223930000017341823149209285029_)"/><path d="M472.3 88.8c.1-3-2.2-5.5-5.2-5.6s-5.5 2.2-5.6 5.2 2.2 5.5 5.2 5.6 5.5-2.2 5.6-5.2" class="st3"/><linearGradient id="SVGID_00000040540264000293894250000012988565433544801450_" x1="469.02" x2="512.163" y1="84.407" y2="84.407" gradientTransform="matrix(1 0 0 -1 0 117.79)" gradientUnits="userSpaceOnUse"><stop offset=".33" style="stop-color:#ffb547"/><stop offset="1" style="stop-color:#ff9012"/></linearGradient><path d="M480.4 42.8c-.4.4-5.5 5.8-11.4 8 0 0 10 .6 19.8-3.5 11-4.5 16.5-7.3 18.8-7.7 1.3-.2 2.7-.1 4 .5.9-4.2.6-7.8-.2-11.1-5.7-5.5-14.9-11.3-29.7-13.1 0 0 6.9 9.6 7.5 12.1s-5.5 11.9-8.8 14.8" style="fill:url(#SVGID_00000040540264000293894250000012988565433544801450_)"/><linearGradient id="SVGID_00000065791251163116805520000018278274309271735998_" x1="449.919" x2="527.415" y1="45.269" y2="45.269" gradientTransform="matrix(1 0 0 -1 0 117.79)" gradientUnits="userSpaceOnUse"><stop offset=".33" style="stop-color:#ffb547"/><stop offset="1" style="stop-color:#ff9012"/></linearGradient><path d="M515.2 30.6c2 2.2 3.8 4.7 5.3 7.3 8.4 14.1 9.2 31.8 2.1 46.6-8.4 17.6-33.2 33.1-53.5 29.4-9-1.6-16.8-5.4-18.8-15.4-1.2-6 .2-14.6 4.8-18.8 6-5.5 12.4-6.6 20.1-8.7 6.3-1.8 13.8-4.7 17.8-6.5 5-2.2 8.4-3.6 13.7-9.7 3.5-4.1 6-8.9 7.5-14 .8-3.2 1.1-6.7 1-10.2" style="fill:url(#SVGID_00000065791251163116805520000018278274309271735998_)"/><path d="M470.8 97.5c4.4-2.6 5.9-8.4 3.2-12.8-2.6-4.4-8.4-5.9-12.8-3.2-4.4 2.6-5.9 8.4-3.2 12.8s8.3 5.8 12.8 3.2" class="st1"/><linearGradient id="SVGID_00000050636045533296116580000018025357997327107500_" x1="469.26" x2="512.239" y1="84.417" y2="84.417" gradientTransform="matrix(1 0 0 -1 0 117.79)" gradientUnits="userSpaceOnUse"><stop offset=".33" style="stop-color:#fbb040"/><stop offset="1" style="stop-color:#f7941d"/></linearGradient><path d="M480.6 42.8c-3.2 2.8-5.4 5.8-11.3 8 0 0 10 .6 19.7-3.5 10.9-4.5 16.4-7.3 18.7-7.7 1.2-.2 2.7-.1 4 .5.9-4.2.6-7.8-.2-11.1-5.7-5.4-14.9-11.3-29.5-13 0 0 6.9 9.5 7.5 12 .6 2.6-5.6 11.9-8.9 14.8" style="fill:url(#SVGID_00000050636045533296116580000018025357997327107500_)"/><path d="M472.3 88.8c.1-3-2.2-5.5-5.2-5.6s-5.5 2.2-5.6 5.2 2.2 5.5 5.2 5.6 5.5-2.2 5.6-5.2" class="st3"/><path d="M45.8 107h2.5v3.4c1.4-2 3.3-3.8 6.4-3.8 4 0 8.1 3.2 8.1 8.7v.1c0 5.5-4 8.8-8.1 8.8-3.1 0-5.2-1.7-6.4-3.6v8.4h-2.5zm14.4 8.5c0-4.1-2.7-6.6-5.9-6.6s-6.1 2.7-6.1 6.5v.1c0 3.9 3 6.5 6.1 6.5s5.9-2.4 5.9-6.5M65.2 119c0-3.6 2.9-5.5 7.2-5.5 2.2 0 3.6.3 5.2.7v-.6c0-3-1.9-4.6-5-4.6-2 0-3.6.5-5.1 1.2l-.8-2.1c1.9-.9 3.7-1.4 6.1-1.4s4.2.6 5.4 1.9c1.1 1.1 1.7 2.8 1.7 4.9v10.3h-2.4v-2.5c-1.2 1.5-3.1 2.9-6.1 2.9-2.9 0-6.2-1.7-6.2-5.2m12.4-1.3V116c-1.3-.4-2.9-.7-4.9-.7-3.2 0-4.9 1.4-4.9 3.5v.1c0 2.1 2 3.4 4.2 3.4 3.1-.1 5.7-1.9 5.6-4.6M83.5 115.5c0-4.9 3.7-8.9 8.6-8.9 3.2 0 5.1 1.3 6.7 3l-1.7 1.8c-1.3-1.4-2.8-2.5-5.1-2.5-3.4 0-6 2.9-6 6.5v.1c0 3.6 2.7 6.6 6.2 6.6 2.2 0 3.8-1.1 5.1-2.5L99 121c-1.7 1.9-3.7 3.3-6.9 3.3-4.9 0-8.6-4-8.6-8.8M102.2 100.1h2.5v16.4l9.1-9.5h3.1l-7.1 7.2 7.3 9.6h-3l-6-7.9-3.4 3.4v4.4h-2.5zM118.2 119c0-3.6 2.9-5.5 7.2-5.5 2.2 0 3.6.3 5.2.7v-.6c0-3-1.9-4.6-5-4.6-2 0-3.6.5-5.1 1.2l-.8-2.1c1.9-.9 3.6-1.4 6.1-1.4s4.2.6 5.4 1.9c1.1 1.1 1.7 2.8 1.7 4.9v10.3h-2.4v-2.5c-1.2 1.5-3.1 2.9-6.1 2.9s-6.2-1.7-6.2-5.2m12.4-1.3V116c-1.3-.4-2.9-.7-4.9-.7-3.2 0-4.9 1.4-4.9 3.5v.1c0 2.1 2 3.4 4.2 3.4 3.1-.1 5.6-1.9 5.6-4.6M137.2 126.8l1.1-1.9c1.9 1.4 4 2.1 6.5 2.1 3.8 0 6.1-2.1 6.1-6v-2c-1.5 1.9-3.5 3.6-6.6 3.6-4 0-7.9-3.1-7.9-7.9v-.1c0-4.9 3.9-7.9 7.9-7.9 3.2 0 5.2 1.6 6.6 3.4v-3h2.5V121c0 2.6-.8 4.6-2.1 6-1.5 1.5-3.7 2.2-6.4 2.2s-5.4-.9-7.7-2.4m13.8-12.2c0-3.5-3-5.8-6.2-5.8s-5.8 2.2-5.8 5.7v.1c0 3.4 2.7 5.7 5.8 5.7s6.2-2.3 6.2-5.7M158.1 100.6h2.9v2.8h-2.9zm.2 6.4h2.5v16.8h-2.5zM165.6 107h2.5v2.9c1.1-1.8 2.9-3.3 5.8-3.3 4 0 6.4 2.7 6.4 6.7v10.5h-2.5V114c0-3.1-1.7-5.1-4.7-5.1s-5.1 2.1-5.1 5.3v9.6h-2.5V107zM184.6 126.8l1.1-1.9c1.9 1.4 4 2.1 6.5 2.1 3.8 0 6.1-2.1 6.1-6v-2c-1.5 1.9-3.5 3.6-6.6 3.6-4 0-7.9-3.1-7.9-7.9v-.1c0-4.9 3.9-7.9 7.9-7.9 3.2 0 5.2 1.6 6.6 3.4v-3h2.5V121c0 2.6-.8 4.6-2.1 6-1.5 1.5-3.7 2.2-6.4 2.2s-5.5-.9-7.7-2.4m13.8-12.2c0-3.5-3-5.8-6.2-5.8s-5.8 2.2-5.8 5.7v.1c0 3.4 2.7 5.7 5.8 5.7s6.2-2.3 6.2-5.7M213.6 107h2.7l4.4 13.5 4.5-13.6h2.1l4.6 13.6 4.4-13.5h2.6l-5.9 17h-2.2l-4.5-13.3-4.6 13.3h-2.2zM241.8 100.6h2.9v2.8h-2.9zm.2 6.4h2.5v16.8H242zM249.9 119.4v-10.2h-2.4V107h2.4v-5.1h2.5v5.1h5.3v2.2h-5.3v9.8c0 2.1 1.1 2.8 2.8 2.8.9 0 1.6-.2 2.4-.6v2.1c-.9.5-1.8.7-3 .7-2.7.1-4.7-1.2-4.7-4.6M260.8 100.1h2.5v9.9c1.1-1.8 2.9-3.3 5.8-3.3 4 0 6.5 2.7 6.5 6.7v10.5h-2.5V114c0-3.1-1.7-5.1-4.7-5.1s-5 2.1-5 5.3v9.6h-2.5v-23.7zM289.5 107h2.5v3.4c1.4-2 3.3-3.8 6.5-3.8 4 0 8 3.2 8 8.7v.1c0 5.5-4 8.8-8 8.8-3.1 0-5.1-1.7-6.5-3.6v8.4h-2.5zm14.4 8.5c0-4.1-2.7-6.6-5.9-6.6s-6.1 2.7-6.1 6.5v.1c0 3.9 3 6.5 6.1 6.5s5.9-2.4 5.9-6.5M310.1 117.5V107h2.5v9.8c0 3.1 1.7 5.1 4.7 5.1s5-2.1 5-5.3V107h2.5v16.8h-2.5v-2.9c-1.1 1.8-2.9 3.3-5.8 3.3-4 0-6.4-2.7-6.4-6.7M329.6 107h2.5v4.4c1.2-2.8 3.7-4.8 6.9-4.7v2.7h-.2c-3.7 0-6.7 2.6-6.7 7.7v6.7h-2.5zM341.7 107h2.5v3.4c1.4-2 3.3-3.8 6.5-3.8 4 0 8 3.2 8 8.7v.1c0 5.5-4 8.8-8 8.8-3.1 0-5.1-1.7-6.5-3.6v8.4h-2.5zm14.5 8.5c0-4.1-2.7-6.6-5.9-6.6s-6.1 2.7-6.1 6.5v.1c0 3.9 3 6.5 6.1 6.5s5.9-2.4 5.9-6.5M361.5 115.5c0-4.9 3.7-8.9 8.8-8.9s8.8 4 8.8 8.7v.1c0 4.8-3.8 8.8-8.8 8.8s-8.8-3.9-8.8-8.7m15 0c0-3.7-2.7-6.7-6.3-6.7s-6.2 3-6.2 6.5v.1c0 3.6 2.7 6.6 6.2 6.6s6.3-3 6.3-6.5M381.1 121.7l1.3-1.8c1.8 1.4 3.8 2.1 5.8 2.1s3.5-1 3.5-2.7v-.1c0-1.7-2-2.4-4.2-3-2.6-.8-5.6-1.6-5.6-4.8v-.1c0-2.9 2.4-4.8 5.7-4.8 2.1 0 4.3.7 6.1 1.9l-1.1 1.9c-1.6-1-3.3-1.6-5-1.6-2 0-3.3 1-3.3 2.4v.1c0 1.6 2.1 2.2 4.3 2.9 2.6.8 5.4 1.8 5.4 4.8v.1c0 3.2-2.6 5.1-6 5.1-2.4.1-5-.9-6.9-2.4M396.6 115.5c0-4.9 3.4-8.8 8.1-8.8 5 0 7.9 4 7.9 8.9v.8h-13.4c.4 3.6 2.9 5.7 5.9 5.7 2.4 0 3.9-.9 5.3-2.4l1.6 1.4c-1.7 1.9-3.7 3.2-6.9 3.2-4.7-.1-8.5-3.6-8.5-8.8m13.4-1c-.3-3-2-5.7-5.4-5.7-3 0-5.1 2.5-5.5 5.7z" class="st7"/></g><g id="title"><circle cx="460.4" cy="12.4" r="6.4" class="st1"/><path d="M17.4 67.5c-5.3-3.2-9.5-7.5-12.5-13C1.8 49 .3 42.9.3 36.2s1.5-12.6 4.6-18.1 7.2-9.8 12.5-13S28.5.2 35 .2c4.6 0 8.5.6 11.8 1.8s6.7 3.2 10.1 6c.7.5 1.2 1.1 1.4 1.7s.4 1.2.4 2c0 1.2-.4 2.2-1.3 3q-1.35 1.2-3 1.2c-1.65 0-2.2-.4-3.2-1.2-2.5-2.1-4.8-3.6-7.2-4.5-2.3-.9-5.4-1.4-9.1-1.4-4.7 0-9 1.2-12.9 3.7s-7 5.8-9.3 10-3.5 8.8-3.5 13.8 1.2 9.7 3.5 13.8c2.3 4.2 5.4 7.5 9.3 10s8.2 3.7 12.9 3.7c5.8 0 11.3-2 16.5-5.9 1-.7 2-1.1 3-1.1 1.1 0 2.1.4 2.8 1.2s1.1 1.9 1.1 3.2-.5 2.4-1.4 3.3c-6.5 5.2-13.8 7.8-22 7.8-6.4 0-12.2-1.6-17.5-4.8M70.7 70c-.9-.9-1.4-2-1.4-3.3V5.8c0-1.4.4-2.5 1.4-3.4.9-.9 2-1.3 3.3-1.3s2.5.4 3.4 1.3 1.3 2 1.3 3.4v60.9c0 1.3-.4 2.4-1.3 3.3s-2 1.4-3.4 1.4-2.4-.5-3.3-1.4M134.8 48.8c-.8.8-1.8 1.1-3 1.1H97.7q1.05 6.3 5.7 10.2c3.1 2.6 7 3.9 11.6 3.9 1.8 0 3.7-.3 5.6-1s3.6-1.5 4.8-2.4c.8-.7 1.8-1 3-1s2 .3 2.7.9c1.1.9 1.6 1.9 1.6 3.1 0 1.1-.5 2-1.4 2.7-2 1.6-4.6 2.9-7.6 4q-4.5 1.5-8.7 1.5c-4.9 0-9.3-1.1-13.2-3.2s-6.9-5.1-9.1-8.8c-2.2-3.8-3.3-8.1-3.3-12.8s1-9.1 3.1-12.9 4.9-6.8 8.6-8.9S109 22 113.6 22s8.6 1 12 3.1 5.9 4.9 7.7 8.5c1.8 3.7 2.7 7.8 2.7 12.6 0 1-.4 1.9-1.2 2.6M103 33.1c-2.7 2.4-4.4 5.6-5.2 9.6h29.9q-.75-6-4.5-9.6t-9.6-3.6c-4.4 0-7.9 1.2-10.6 3.6M176.8 25.1c3.7 2.2 6.7 5.2 8.9 9s3.3 8.1 3.3 12.7v20c0 1.3-.4 2.4-1.3 3.3s-2 1.3-3.3 1.3-2.4-.4-3.3-1.3-1.3-2-1.3-3.3v-3.3c-2.1 2.6-4.6 4.6-7.6 6s-6.2 2.2-9.7 2.2c-4.3 0-8.2-1.1-11.7-3.2-3.5-2.2-6.3-5.1-8.3-8.9s-3-8.1-3-12.7 1.1-8.9 3.2-12.7 5.1-6.8 8.9-9q5.7-3.3 12.6-3.3c6.9 0 8.8 1 12.6 3.2m-4.4 36.3q3.6-2.25 5.7-6c1.4-2.6 2.1-5.4 2.1-8.6s-.7-6.1-2.1-8.6c-1.4-2.6-3.3-4.6-5.7-6.1s-5.1-2.2-8.1-2.2-5.7.7-8.1 2.2-4.4 3.5-5.8 6.1-2.1 5.4-2.1 8.6.7 6 2.1 8.6 3.3 4.6 5.8 6c2.4 1.5 5.1 2.2 8.1 2.2s5.6-.7 8.1-2.2M230.2 23.1q2.7 1.5 2.7 3.6c0 .4 0 .7-.1.9-.5 1.9-1.7 2.9-3.6 2.9-.3 0-.8-.1-1.4-.2-2.4-.4-4.4-.6-5.8-.6-4.3 0-7.8 1-10.4 3s-4 4.7-4 8V67c0 1.4-.4 2.6-1.1 3.3-.8.8-1.9 1.2-3.4 1.2s-2.6-.4-3.3-1.1-1.2-1.9-1.2-3.4V26.7c0-1.4.4-2.6 1.2-3.3s1.9-1.2 3.3-1.2q4.5 0 4.5 4.5v1.7c1.8-2.1 4-3.7 6.6-4.9s5.5-1.8 8.5-1.8c3.2 0 5.7.4 7.5 1.4M240.6 70c-.9-.9-1.4-2-1.4-3.3V5.8c0-1.4.5-2.5 1.4-3.4s2-1.3 3.3-1.3h21.5c4 0 7.6.8 10.7 2.4s5.6 3.8 7.3 6.7c1.8 2.8 2.6 6.1 2.6 9.7 0 2.9-.8 5.6-2.4 7.9s-3.8 4.2-6.5 5.7c4.1 1 7.3 2.9 9.6 5.8s3.5 6.5 3.5 11c0 4.1-1 7.7-2.9 11-2 3.2-4.7 5.7-8.2 7.5s-7.5 2.7-11.9 2.7H244c-1.3-.1-2.5-.6-3.4-1.5m24.8-40c3.5 0 6.4-.9 8.5-2.6s3.2-4.2 3.2-7.6-1.1-5.8-3.2-7.5-5-2.6-8.5-2.6h-16.8V30zm1.9 32.7q6.3 0 10.2-3.3t3.9-9.3c0-3.7-1.3-6.6-3.8-8.5-2.5-2-6-3-10.2-3h-18.7v24.1zM334.3 25.1c3.7 2.2 6.7 5.2 8.9 9s3.3 8.1 3.3 12.7v20c0 1.3-.4 2.4-1.3 3.3s-2 1.3-3.3 1.3-2.4-.4-3.3-1.3-1.3-2-1.3-3.3v-3.3c-2.1 2.6-4.6 4.6-7.6 6s-6.2 2.2-9.7 2.2c-4.3 0-8.2-1.1-11.7-3.2-3.5-2.2-6.3-5.1-8.3-8.9s-3-8.1-3-12.7 1.1-8.9 3.2-12.7 5.1-6.8 8.9-9q5.7-3.3 12.6-3.3c6.9 0 8.8 1 12.6 3.2m-4.5 36.3q3.6-2.25 5.7-6c1.4-2.6 2.1-5.4 2.1-8.6s-.7-6.1-2.1-8.6c-1.4-2.6-3.3-4.6-5.7-6.1s-5.1-2.2-8.1-2.2-5.7.7-8.1 2.2-4.4 3.5-5.8 6.1-2.1 5.4-2.1 8.6.7 6 2.1 8.6 3.3 4.6 5.8 6c2.4 1.5 5.1 2.2 8.1 2.2s5.7-.7 8.1-2.2M391.2 25c3.7 2.1 6.7 5.1 8.8 8.8 2.1 3.8 3.2 8.1 3.2 12.9v19.4c0 4.7-1 9.1-3.1 12.9-2.1 3.9-5 7-8.9 9.2-3.8 2.2-8.1 3.4-12.9 3.4-4.3 0-8.3-.9-12-2.6s-6.8-4.1-9.4-7.3c-.7-.8-1-1.7-1-2.5 0-1.3.6-2.3 1.9-3.2.8-.5 1.7-.8 2.5-.8 1.5 0 2.7.6 3.7 1.9 1.6 2.1 3.6 3.7 6.1 4.8s5.2 1.7 8.4 1.7c2.9 0 5.6-.7 8-2.1s4.3-3.5 5.8-6.2c1.4-2.7 2.2-6 2.2-9.8v-4.4c-1.9 3.3-4.3 5.9-7.4 7.7s-6.5 2.8-10.3 2.8c-4.4 0-8.4-1.1-11.9-3.2s-6.2-5.1-8.2-8.9-2.9-8.1-2.9-12.8 1-9.2 3.1-12.9c2.1-3.8 5-6.7 8.8-8.8s8.1-3.2 12.9-3.2 8.8 1.1 12.6 3.2m-4.5 36.5q3.6-2.1 5.7-6c2.1-3.9 2-5.4 2-8.7s-.7-6.1-2-8.7c-1.4-2.6-3.2-4.6-5.7-6-2.4-1.4-5.2-2.2-8.2-2.2s-5.8.7-8.2 2.2q-3.6 2.1-5.7 6t-2.1 8.7c0 4.8.7 6.1 2.1 8.7s3.3 4.5 5.7 6 5.2 2.2 8.2 2.2 5.7-.8 8.2-2.2M419.2 69.8c-3.6-1.3-6.4-2.9-8.5-4.9-.8-.8-1.2-1.7-1.2-2.8 0-1.4.6-2.6 1.8-3.5 1.1-.8 2.2-1.3 3.1-1.3 1.2 0 2.3.5 3.4 1.6 1.1 1.3 2.9 2.3 5.1 3.3 2.3.9 4.7 1.4 7.3 1.4 3.4 0 6.1-.6 8-1.7s2.8-2.7 2.8-4.6-.9-3.4-2.8-4.6-5-2.3-9.4-3.1c-11.5-2.2-17.3-6.9-17.3-14.2 0-2.9.9-5.4 2.6-7.5s4-3.6 6.8-4.6q4.2-1.5 9-1.5c3.9 0 7.4.6 10.5 1.9s5.5 3 7.3 5.2c.8 1 1.2 1.9 1.2 2.9s-.5 1.9-1.5 2.8c-.7.5-1.5.7-2.5.7-1.6 0-3-.6-4.2-1.7-1.5-1.4-3.1-2.3-4.8-2.9s-3.7-.8-6.1-.8c-2.8 0-5 .5-6.8 1.4s-2.6 2.2-2.6 3.9q0 1.8.9 3c.6.8 1.7 1.6 3.4 2.2 1.7.7 4.1 1.4 7.3 2 6.5 1.3 11.2 3.2 13.9 5.5s4.1 5.4 4.1 9.1c0 2.8-.8 5.3-2.2 7.5-1.5 2.2-3.7 4-6.6 5.3s-6.4 1.9-10.5 1.9-7.9-.6-11.5-1.9" class="st8"/><path d="M35 72.4c-6.4 0-12.3-1.6-17.6-4.8S7.8 60 4.7 54.5C1.7 49 .1 42.8.1 36.2S1.6 23.5 4.7 18C7.8 12.6 12 8.2 17.3 5S28.6.1 35 .1c4.6 0 8.5.6 11.9 1.8s6.7 3.2 10.2 6c.7.5 1.2 1.1 1.5 1.7s.4 1.3.4 2.1c0 1.2-.4 2.3-1.3 3.1S55.8 16 54.6 16s-2.2-.4-3.2-1.2q-3.6-3.15-7.2-4.5c-2.3-.9-5.3-1.4-9-1.4-4.6 0-8.9 1.2-12.8 3.7-3.9 2.4-7 5.8-9.3 10s-3.5 8.8-3.5 13.7 1.2 9.6 3.5 13.8q3.45 6.3 9.3 9.9c3.9 2.4 8.2 3.7 12.8 3.7 5.7 0 11.2-2 16.5-5.9 1-.7 2.1-1.1 3-1.1 1.2 0 2.2.4 2.9 1.2s1.2 1.9 1.2 3.3-.5 2.4-1.5 3.4c-6.7 5.2-14.1 7.8-22.3 7.8" class="st8"/><path d="M35 .2c4.6 0 8.5.6 11.8 1.8s6.7 3.2 10.1 6c.7.5 1.2 1.1 1.4 1.7s.4 1.2.4 2c0 1.2-.4 2.2-1.3 3q-1.35 1.2-3 1.2c-1.65 0-2.2-.4-3.2-1.2-2.5-2.1-4.8-3.6-7.2-4.5-2.3-.9-5.4-1.4-9.1-1.4-4.7 0-9 1.2-12.9 3.7s-7 5.8-9.3 10-3.5 8.8-3.5 13.8 1.2 9.7 3.5 13.8c2.3 4.2 5.4 7.5 9.3 10s8.2 3.7 12.9 3.7c5.8 0 11.3-2 16.5-5.9 1-.7 2-1.1 3-1.1 1.1 0 2.1.4 2.8 1.2s1.1 1.9 1.1 3.2-.5 2.4-1.4 3.3c-6.5 5.2-13.8 7.8-22 7.8-6.4 0-12.3-1.6-17.6-4.8S7.8 60 4.8 54.5Q.3 46.25.3 36.2c0-10.05 1.5-12.6 4.6-18.1s7.2-9.8 12.5-13S28.5.2 35 .2m0-.2c-6.4 0-12.4 1.6-17.7 4.8C11.9 8.1 7.7 12.5 4.6 18 1.6 23.5 0 29.6 0 36.2S1.5 49 4.6 54.6c3.1 5.5 7.3 9.9 12.6 13.1s11.3 4.8 17.7 4.8c8.2 0 15.7-2.6 22.2-7.9 1-1 1.5-2.2 1.5-3.5s-.4-2.5-1.2-3.4-1.8-1.3-3-1.3c-1 0-2.1.4-3.1 1.1-5.2 3.9-10.7 5.9-16.4 5.9-4.6 0-8.9-1.2-12.8-3.7s-7-5.8-9.3-9.9S9.4 41 9.4 36.1s1.2-9.5 3.4-13.7q3.45-6.3 9.3-9.9C27.95 8.9 30.3 9 35 9c3.7 0 6.7.5 9 1.4s4.7 2.4 7.1 4.5q1.5 1.2 3.3 1.2c1.8 0 2.3-.4 3.2-1.2S59 13 59 11.7c0-.8-.1-1.5-.4-2.1s-.8-1.2-1.6-1.8C53.6 5 50.2 3 46.9 1.8 43.5.6 39.5 0 35 0M74.1 71.5c-1.3 0-2.5-.5-3.4-1.4s-1.4-2.1-1.4-3.4V5.8c0-1.4.5-2.6 1.4-3.5s2-1.3 3.4-1.3c1.3 0 2.6.5 3.5 1.3s1.3 2.1 1.3 3.5v60.9c0 1.3-.4 2.5-1.3 3.4-1 .9-2.1 1.4-3.5 1.4" class="st8"/><path d="M74.1 1.2c1.4 0 2.5.4 3.4 1.3s1.3 2 1.3 3.4v60.9c0 1.3-.4 2.4-1.3 3.3s-2 1.4-3.4 1.4-2.4-.4-3.3-1.4c-.9-.9-1.3-2-1.3-3.3v-61c0-1.4.4-2.5 1.3-3.4.8-.8 1.9-1.3 3.3-1.2m0-.3c-1.4 0-2.6.5-3.5 1.4s-1.4 2.1-1.4 3.5v60.9c0 1.4.5 2.6 1.4 3.5s2.1 1.4 3.5 1.4 2.6-.5 3.6-1.4 1.4-2.1 1.4-3.5V5.8c0-1.4-.5-2.6-1.4-3.5-1-.9-2.2-1.4-3.6-1.4M115 71.9c-4.9 0-9.4-1.1-13.3-3.2s-7-5.1-9.2-8.9-3.3-8.1-3.3-12.9 1.1-9.2 3.1-13c2.1-3.8 5-6.8 8.7-8.9s7.9-3.2 12.6-3.2 8.7 1 12 3.1 6 4.9 7.8 8.6q2.7 5.55 2.7 12.6c0 1.2-.4 2.2-1.2 2.9s-1.8 1.2-3.1 1.2h-34c.7 4.1 2.6 7.4 5.6 9.9 3.1 2.6 7 3.8 11.5 3.8 1.8 0 3.7-.3 5.6-1q2.85-1.05 4.8-2.4c.9-.7 1.9-1 3-1s2.1.3 2.8.9c1.1.9 1.7 2 1.7 3.2s-.5 2.1-1.5 2.8c-2 1.6-4.6 3-7.6 4-3 .9-6 1.4-8.7 1.5m12.6-29.3c-.6-3.9-2-7.1-4.4-9.4-2.4-2.4-5.6-3.6-9.5-3.6-4.3 0-7.9 1.2-10.6 3.6-2.7 2.3-4.4 5.5-5.1 9.4z" class="st8"/><path d="M113.6 21.8c4.6 0 8.6 1 12 3.1s5.9 4.9 7.7 8.5c1.8 3.7 2.7 7.8 2.7 12.6 0 1.1-.4 2.1-1.2 2.8s-1.8 1.1-3 1.1H97.7q1.05 6.3 5.7 10.2c3.1 2.6 7 3.9 11.6 3.9 1.8 0 3.7-.3 5.6-1s3.6-1.5 4.8-2.4c.8-.7 1.8-1 3-1s2 .3 2.7.9c1.1.9 1.6 1.9 1.6 3.1 0 1.1-.5 2-1.4 2.7-2 1.6-4.6 2.9-7.6 4q-4.5 1.5-8.7 1.5c-4.9 0-9.3-1.1-13.2-3.2s-6.9-5.1-9.1-8.8c-2.2-3.8-3.3-8.1-3.3-12.8s1-9.1 3.1-12.9 4.9-6.8 8.6-8.9c3.7-2.3 7.9-3.3 12.5-3.4m-15.8 21h29.9q-.75-6-4.5-9.6t-9.6-3.6c-4.4 0-7.9 1.2-10.6 3.6s-4.5 5.6-5.2 9.6m15.8-21.2c-4.7 0-9 1.1-12.7 3.2s-6.6 5.2-8.7 9-3.1 8.2-3.1 13 1.1 9.2 3.3 13 5.3 6.8 9.2 8.9 8.4 3.2 13.3 3.2c2.8 0 5.7-.5 8.8-1.5 3-1 5.6-2.4 7.7-4 1-.8 1.5-1.7 1.5-2.9s-.6-2.3-1.7-3.2c-.7-.6-1.7-1-2.9-1s-2.2.3-3.1 1c-1.2.9-2.8 1.7-4.7 2.4s-3.8 1-5.5 1c-4.5 0-8.3-1.3-11.4-3.8-3-2.5-4.9-5.7-5.6-9.7h33.9c1.3 0 2.3-.4 3.1-1.2q1.2-1.2 1.2-3c0-4.8-.9-9-2.7-12.7s-4.4-6.6-7.8-8.6-7.4-3.1-12.1-3.1m-15.5 21c.7-3.8 2.4-6.9 5-9.2 2.7-2.3 6.2-3.5 10.5-3.5 3.9 0 7.1 1.2 9.4 3.5 2.4 2.3 3.8 5.4 4.4 9.2zM162.4 71.9c-4.3 0-8.3-1.1-11.8-3.2-3.5-2.2-6.3-5.2-8.3-9s-3-8.1-3-12.8 1.1-9 3.2-12.8 5.2-6.8 9-9 8.1-3.3 12.7-3.3 8.9 1.1 12.6 3.3 6.8 5.2 8.9 9c2.2 3.8 3.3 8.1 3.3 12.8v20c0 1.4-.4 2.5-1.3 3.4s-2 1.3-3.4 1.3-2.5-.4-3.4-1.3-1.3-2-1.3-3.4v-3c-2.1 2.5-4.6 4.4-7.5 5.8s-6.2 2.1-9.7 2.2m1.8-41.8c-3 0-5.7.7-8.1 2.2-2.4 1.4-4.3 3.5-5.7 6-1.4 2.6-2.1 5.4-2.1 8.6s.7 6 2.1 8.5q2.1 3.75 5.7 6c2.4 1.4 5.1 2.2 8.1 2.2s5.7-.7 8.1-2.2c2.4-1.4 4.3-3.5 5.7-6s2.1-5.4 2.1-8.5-.7-6-2.1-8.6c-1.4-2.5-3.3-4.6-5.7-6-2.4-1.5-5.1-2.3-8.1-2.2" class="st8"/><path d="M164.2 21.8c4.6 0 8.8 1.1 12.5 3.3s6.7 5.2 8.9 9 3.3 8.1 3.3 12.7v20c0 1.3-.4 2.4-1.3 3.3s-2 1.3-3.3 1.3-2.4-.4-3.3-1.3-1.3-2-1.3-3.3v-3.3c-2.1 2.6-4.6 4.6-7.6 6s-6.2 2.2-9.7 2.2c-4.3 0-8.2-1.1-11.7-3.2-3.5-2.2-6.3-5.1-8.3-8.9s-3-8.1-3-12.7 1.1-8.9 3.2-12.7 5.1-6.8 8.9-9c3.9-2.3 8.1-3.4 12.7-3.4m0 41.8c3 0 5.7-.7 8.1-2.2q3.6-2.25 5.7-6c1.4-2.6 2.1-5.4 2.1-8.6s-.7-6.1-2.1-8.6c-1.4-2.6-3.3-4.6-5.7-6.1s-5.1-2.2-8.1-2.2-5.7.7-8.1 2.2-4.4 3.5-5.8 6.1-2.1 5.4-2.1 8.6.7 6 2.1 8.6 3.3 4.6 5.8 6c2.4 1.5 5.1 2.2 8.1 2.2m0-42c-4.6 0-8.9 1.1-12.8 3.3-3.8 2.2-6.9 5.3-9 9.1-2.2 3.8-3.3 8.2-3.3 12.8s1 9 3 12.8 4.8 6.9 8.4 9 7.5 3.3 11.9 3.3c3.5 0 6.8-.7 9.8-2.2 2.8-1.4 5.2-3.2 7.3-5.6v2.6c0 1.4.5 2.6 1.4 3.5s2.1 1.4 3.5 1.4 2.5-.5 3.5-1.4c.9-.9 1.4-2.1 1.4-3.5v-20c0-4.7-1.1-9-3.3-12.8s-5.2-6.9-9-9.1c-3.9-2.1-8.1-3.2-12.8-3.2m0 41.8c-2.9 0-5.6-.7-8-2.2-2.4-1.4-4.3-3.4-5.7-5.9s-2.1-5.3-2.1-8.5.7-6 2.1-8.5q2.1-3.75 5.7-6c3.6-2.25 5.1-2.2 8-2.2s5.6.7 8 2.2c2.4 1.4 4.3 3.4 5.6 6 1.4 2.5 2 5.4 2 8.5s-.7 6-2 8.5c-1.4 2.5-3.2 4.5-5.6 5.9-2.3 1.5-5 2.2-8 2.2M203.1 71.5c-1.5 0-2.6-.4-3.4-1.2s-1.2-1.9-1.2-3.5V26.7c0-1.5.4-2.6 1.2-3.4s1.9-1.2 3.4-1.2c3.1 0 4.6 1.6 4.6 4.6v1.4c1.8-2 3.9-3.6 6.5-4.7 2.6-1.2 5.5-1.8 8.5-1.8 3.2 0 5.7.5 7.5 1.4 1.8 1 2.8 2.2 2.8 3.7 0 .4 0 .7-.1.9-.5 2-1.8 3-3.7 3-.3 0-.8-.1-1.4-.2-2.4-.4-4.3-.6-5.8-.6-4.3 0-7.8 1-10.4 2.9s-3.9 4.6-3.9 7.9v26.3c0 1.5-.4 2.6-1.2 3.4s-1.8 1.2-3.4 1.2" class="st8"/><path d="M222.7 21.6c3.2 0 5.7.5 7.5 1.4s2.7 2.2 2.7 3.6c0 .4 0 .7-.1.9-.5 1.9-1.7 2.9-3.6 2.9-.3 0-.8-.1-1.4-.2-2.4-.4-4.4-.6-5.8-.6-4.3 0-7.8 1-10.4 3s-4 4.7-4 8v26.3c0 1.4-.4 2.6-1.1 3.3-.8.8-1.9 1.2-3.4 1.2s-2.6-.4-3.3-1.1-1.2-1.9-1.2-3.4V26.7c0-1.4.4-2.6 1.2-3.3s1.9-1.2 3.3-1.2q4.5 0 4.5 4.5v1.7c1.8-2.1 4-3.7 6.6-4.9 2.7-1.2 5.5-1.8 8.5-1.9m0-.2c-3 0-5.9.6-8.5 1.8q-3.75 1.65-6.3 4.5v-1.1c0-3.2-1.6-4.7-4.7-4.7-1.5 0-2.7.4-3.5 1.2s-1.2 2-1.2 3.5v40.2q0 2.4 1.2 3.6c.8.8 2 1.2 3.5 1.2s2.8-.4 3.6-1.2 1.2-2 1.2-3.5V40.6q0-4.95 3.9-7.8c2.6-1.9 6-2.9 10.3-2.9 1.5 0 3.4.2 5.8.6.6.1 1.1.2 1.4.2 2 0 3.3-1 3.8-3.1.1-.2.1-.5.1-1 0-1.5-1-2.8-2.8-3.8-2-.9-4.5-1.4-7.8-1.4M243.9 71.5c-1.4 0-2.5-.5-3.4-1.4s-1.4-2.1-1.4-3.4V5.8c0-1.4.5-2.6 1.4-3.5s2.1-1.3 3.4-1.3h21.5q6 0 10.8 2.4c4.8 2.4 5.6 3.8 7.4 6.7s2.7 6.1 2.7 9.7c0 2.9-.8 5.6-2.4 8-1.5 2.3-3.6 4.1-6.3 5.6 3.9 1 7.1 2.9 9.4 5.7 2.3 2.9 3.5 6.6 3.5 11.1 0 4.1-1 7.8-2.9 11-2 3.2-4.7 5.8-8.2 7.6q-5.25 2.7-12 2.7zm23.4-8.9c4.1 0 7.5-1.1 10.1-3.2 2.5-2.2 3.8-5.2 3.8-9.2 0-3.7-1.3-6.5-3.8-8.4s-5.9-2.9-10.1-2.9h-18.6v23.8h18.6zm-1.9-32.7c3.5 0 6.3-.9 8.4-2.6s3.1-4.2 3.1-7.4-1.1-5.7-3.1-7.4c-2.1-1.7-4.9-2.5-8.4-2.5h-16.7v20z" class="st8"/><path d="M265.4 1.2c4 0 7.6.8 10.7 2.4s5.6 3.8 7.3 6.7c1.8 2.8 2.6 6.1 2.6 9.7 0 2.9-.8 5.6-2.4 7.9s-3.8 4.2-6.5 5.7c4.1 1 7.3 2.9 9.6 5.8s3.5 6.5 3.5 11c0 4.1-1 7.7-2.9 11-2 3.2-4.7 5.7-8.2 7.5s-7.5 2.7-11.9 2.7H244c-1.3 0-2.4-.4-3.3-1.3s-1.4-2-1.4-3.3V5.8c0-1.4.5-2.5 1.4-3.4s2-1.3 3.3-1.3zM248.6 30h16.8c3.5 0 6.4-.9 8.5-2.6s3.2-4.2 3.2-7.6-1.1-5.8-3.2-7.5-5-2.6-8.5-2.6h-16.8zm0 32.7h18.7q6.3 0 10.2-3.3t3.9-9.3c0-3.7-1.3-6.6-3.8-8.5-2.5-2-6-3-10.2-3h-18.7zM265.5.9H244c-1.4 0-2.6.5-3.5 1.4-1 .9-1.4 2.1-1.4 3.5v60.9c0 1.4.5 2.6 1.4 3.5s2.1 1.4 3.5 1.4h23.4q6.75 0 12-2.7c3.5-1.8 6.3-4.4 8.3-7.6q3-4.95 3-11.1 0-6.75-3.6-11.1c-2.2-2.8-5.3-4.7-9.1-5.7q3.75-2.1 6-5.4 2.4-3.6 2.4-8.1c0-3.6-.9-6.9-2.7-9.8s-4.3-5.1-7.4-6.7c-3.2-1.7-6.8-2.5-10.8-2.5M248.9 10h16.6c3.5 0 6.3.8 8.3 2.5 2.1 1.7 3.1 4.1 3.1 7.3s-1 5.7-3.1 7.4-4.9 2.6-8.3 2.6h-16.6zm0 28.9h18.5c4.2 0 7.6 1 10 2.9 2.5 1.9 3.7 4.7 3.7 8.3 0 3.9-1.3 7-3.8 9.1s-5.9 3.2-10 3.2h-18.5zM319.9 71.9c-4.3 0-8.3-1.1-11.8-3.2-3.5-2.2-6.3-5.2-8.3-9s-3-8.1-3-12.8 1.1-9 3.2-12.8 5.2-6.8 9-9 8.1-3.3 12.7-3.3 8.9 1.1 12.6 3.3 6.8 5.2 8.9 9c2.2 3.8 3.3 8.1 3.3 12.8v20c0 1.4-.5 2.5-1.3 3.4-.9.9-2 1.3-3.4 1.3s-2.5-.4-3.4-1.3-1.3-2-1.3-3.4v-3c-2.1 2.5-4.6 4.4-7.5 5.8s-6.2 2.1-9.7 2.2m1.8-41.8c-3 0-5.7.7-8.1 2.2s-4.3 3.5-5.7 6c-1.4 2.6-2.1 5.4-2.1 8.6s.7 6 2.1 8.5q2.1 3.75 5.7 6c2.4 1.4 5.1 2.2 8.1 2.2s5.7-.7 8.1-2.2c2.4-1.4 4.3-3.5 5.7-6s2-5.4 2-8.5-.7-6-2-8.6c-1.4-2.5-3.3-4.6-5.7-6-2.4-1.5-5.1-2.3-8.1-2.2" class="st8"/><path d="M321.7 21.8c4.6 0 8.8 1.1 12.5 3.3s6.7 5.2 8.9 9 3.3 8.1 3.3 12.7v20c0 1.3-.4 2.4-1.3 3.3s-2 1.3-3.3 1.3-2.4-.4-3.3-1.3-1.3-2-1.3-3.3v-3.3c-2.1 2.6-4.6 4.6-7.6 6s-6.2 2.2-9.7 2.2c-4.3 0-8.2-1.1-11.7-3.2-3.5-2.2-6.3-5.1-8.3-8.9s-3-8.1-3-12.7 1.1-8.9 3.2-12.7 5.1-6.8 8.9-9c3.9-2.3 8.1-3.4 12.7-3.4m0 41.8c3 0 5.7-.7 8.1-2.2q3.6-2.25 5.7-6c1.4-2.6 2.1-5.4 2.1-8.6s-.7-6.1-2.1-8.6c-1.4-2.6-3.3-4.6-5.7-6.1s-5.1-2.2-8.1-2.2-5.7.7-8.1 2.2-4.4 3.5-5.8 6.1-2.1 5.4-2.1 8.6.7 6 2.1 8.6 3.3 4.6 5.8 6c2.4 1.5 5.1 2.2 8.1 2.2m0-42c-4.6 0-8.9 1.1-12.8 3.3-3.8 2.2-6.9 5.3-9 9.1-2.2 3.8-3.3 8.2-3.3 12.8s1 9 3 12.8 4.8 6.9 8.4 9 7.5 3.3 11.9 3.3c3.5 0 6.8-.7 9.8-2.2 2.8-1.4 5.2-3.2 7.3-5.6v2.6c0 1.4.5 2.6 1.4 3.5s2.1 1.4 3.5 1.4 2.5-.5 3.5-1.4c.9-.9 1.4-2.1 1.4-3.5v-20c0-4.7-1.1-9-3.3-12.8s-5.2-6.9-9-9.1c-3.9-2.1-8.1-3.2-12.8-3.2m0 41.8c-2.9 0-5.6-.7-8-2.2-2.4-1.4-4.3-3.4-5.7-5.9s-2.1-5.3-2.1-8.5.7-6 2.1-8.5q2.1-3.75 5.7-6c3.6-2.25 5.1-2.2 8-2.2s5.6.7 8 2.2c2.4 1.4 4.3 3.4 5.6 6 1.4 2.5 2 5.4 2 8.5s-.7 6-2 8.5-3.2 4.5-5.6 5.9c-2.3 1.5-5 2.2-8 2.2M378.3 91.9c-4.3 0-8.4-.9-12.1-2.6s-6.9-4.2-9.4-7.4c-.7-.9-1-1.7-1-2.6 0-1.3.6-2.4 1.9-3.3.9-.6 1.7-.8 2.6-.8 1.5 0 2.8.7 3.8 1.9 1.6 2.1 3.6 3.7 6.1 4.8 2.4 1.1 5.2 1.6 8.3 1.6 2.9 0 5.6-.7 7.9-2.1s4.3-3.5 5.7-6.1c1.4-2.7 2.1-6 2.1-9.7v-3.9c-1.8 3.1-4.2 5.6-7.2 7.4-3.1 1.9-6.6 2.8-10.4 2.8-4.4 0-8.5-1.1-12-3.2s-6.3-5.1-8.2-8.9-2.9-8.1-2.9-12.9 1.1-9.2 3.2-13 5.1-6.8 8.9-8.9 8.1-3.2 12.9-3.2 9 1.1 12.8 3.2 6.7 5.1 8.9 8.9c2.1 3.8 3.2 8.2 3.2 13v19.4c0 4.7-1.1 9.1-3.2 13s-5.1 7-8.9 9.3c-3.9 2.1-8.3 3.3-13 3.3m.1-61.9c-3 0-5.8.7-8.2 2.1q-3.6 2.1-5.7 6c-1.4 2.5-2 5.5-2 8.7s.7 6.1 2 8.6c1.4 2.5 3.3 4.5 5.7 5.9s5.1 2.1 8.2 2.1 5.8-.7 8.2-2.1 4.3-3.4 5.6-5.9 2-5.4 2-8.6-.7-6.1-2-8.7c-1.3-2.5-3.2-4.6-5.6-6s-5.1-2.1-8.2-2.1" class="st8"/><path d="M378.4 21.8c4.7 0 9 1.1 12.7 3.2s6.7 5.1 8.8 8.8c2.1 3.8 3.2 8.1 3.2 12.9v19.4c0 4.7-1 9.1-3.1 12.9-2.1 3.9-5 7-8.9 9.2-3.8 2.2-8.1 3.4-12.9 3.4-4.3 0-8.3-.9-12-2.6s-6.8-4.1-9.4-7.3c-.7-.8-1-1.7-1-2.5 0-1.3.6-2.3 1.9-3.2.8-.5 1.7-.8 2.5-.8 1.5 0 2.7.6 3.7 1.9 1.6 2.1 3.6 3.7 6.1 4.8s5.2 1.7 8.4 1.7c2.9 0 5.6-.7 8-2.1s4.3-3.5 5.8-6.2c1.4-2.7 2.2-6 2.2-9.8v-4.4c-1.9 3.3-4.3 5.9-7.4 7.7s-6.5 2.8-10.3 2.8c-4.4 0-8.4-1.1-11.9-3.2s-6.2-5.1-8.2-8.9-2.9-8.1-2.9-12.8 1-9.2 3.1-12.9c2.1-3.8 5-6.7 8.8-8.8s8-3.2 12.8-3.2m0 41.8c3.1 0 5.8-.7 8.2-2.2q3.6-2.1 5.7-6c2.1-3.9 2-5.4 2-8.7s-.7-6.1-2-8.7c-1.4-2.6-3.2-4.6-5.7-6-2.4-1.4-5.2-2.2-8.2-2.2s-5.8.7-8.2 2.2q-3.6 2.1-5.7 6t-2.1 8.7c0 4.8.7 6.1 2.1 8.7s3.3 4.5 5.7 6 5.2 2.2 8.2 2.2m0-42c-4.8 0-9.2 1.1-13 3.2s-6.8 5.2-8.9 8.9c-2.1 3.8-3.2 8.2-3.2 13.1s1 9.2 3 13 4.7 6.8 8.3 9 7.6 3.2 12 3.2c3.9 0 7.4-.9 10.5-2.8 2.8-1.7 5.2-4.1 7-7v3.5c0 3.7-.7 7-2.1 9.6-1.4 2.7-3.3 4.7-5.7 6.1s-5 2.1-7.9 2.1c-3.1 0-5.8-.6-8.3-1.6-2.4-1.1-4.4-2.7-6-4.7-1-1.3-2.3-2-3.9-2-.9 0-1.8.3-2.6.9-1.3.9-2 2.1-2 3.4 0 .9.4 1.8 1 2.7 2.5 3.2 5.7 5.7 9.4 7.4s7.8 2.6 12.1 2.6c4.8 0 9.2-1.1 13-3.4q5.7-3.45 9-9.3c2.1-3.9 3.2-8.3 3.2-13.1V46.8c0-4.9-1.1-9.3-3.2-13.1s-5.1-6.8-8.9-8.9c-3.7-2.1-8-3.2-12.8-3.2m0 41.8q-4.5 0-8.1-2.1c-3.6-2.1-4.3-3.4-5.6-5.9-1.4-2.5-2-5.4-2-8.6s.7-6.1 2-8.6 3.2-4.5 5.6-5.9 5.1-2.1 8.1-2.1 5.7.7 8.1 2.1 4.2 3.4 5.6 5.9c1.3 2.5 2 5.4 2 8.6s-.7 6.1-2 8.6-3.2 4.5-5.6 5.9c-2.3 1.4-5.1 2.1-8.1 2.1M430.8 71.9c-4.1 0-8-.6-11.5-1.9-3.6-1.3-6.5-2.9-8.5-5-.8-.8-1.2-1.8-1.2-2.9 0-1.5.6-2.7 1.9-3.6 1.2-.8 2.2-1.3 3.2-1.3 1.2 0 2.4.6 3.5 1.7 1.1 1.2 2.8 2.3 5.1 3.2 2.2.9 4.7 1.4 7.2 1.4 3.4 0 6-.6 7.9-1.7 1.8-1.1 2.8-2.6 2.8-4.5s-.9-3.3-2.7-4.5-5-2.2-9.4-3.1c-11.5-2.2-17.4-7-17.4-14.3 0-2.9.9-5.5 2.6-7.5s4.1-3.6 6.9-4.6 5.9-1.5 9-1.5c3.9 0 7.4.6 10.5 1.9s5.6 3 7.4 5.2q1.2 1.5 1.2 3c0 1.1-.5 2-1.6 2.9-.7.5-1.6.8-2.6.8-1.6 0-3-.6-4.3-1.7-1.5-1.4-3.1-2.3-4.7-2.9-1.7-.6-3.7-.8-6.1-.8-2.7 0-5 .5-6.7 1.4s-2.6 2.2-2.6 3.8c0 1.2.3 2.2.9 2.9s1.7 1.5 3.4 2.2 4.1 1.4 7.3 2c6.5 1.3 11.2 3.2 13.9 5.5s4.1 5.4 4.1 9.2c0 2.8-.8 5.3-2.3 7.6s-3.8 4.1-6.7 5.4c-3 1-6.5 1.6-10.5 1.7" class="st8"/><path d="M430.1 21.8c3.9 0 7.4.6 10.5 1.9s5.5 3 7.3 5.2c.8 1 1.2 1.9 1.2 2.9s-.5 1.9-1.5 2.8c-.7.5-1.5.7-2.5.7-1.6 0-3-.6-4.2-1.7-1.5-1.4-3.1-2.3-4.8-2.9s-3.7-.8-6.1-.8c-2.8 0-5 .5-6.8 1.4s-2.6 2.2-2.6 3.9q0 1.8.9 3c.6.8 1.7 1.6 3.4 2.2 1.7.7 4.1 1.4 7.3 2 6.5 1.3 11.2 3.2 13.9 5.5s4.1 5.4 4.1 9.1c0 2.8-.8 5.3-2.2 7.5-1.5 2.2-3.7 4-6.6 5.3s-6.4 1.9-10.5 1.9-7.9-.6-11.5-1.9-6.4-2.9-8.5-4.9c-.8-.8-1.2-1.7-1.2-2.8 0-1.4.6-2.6 1.8-3.5 1.1-.8 2.2-1.3 3.1-1.3 1.2 0 2.3.5 3.4 1.6 1.1 1.3 2.9 2.3 5.1 3.3 2.3.9 4.7 1.4 7.3 1.4 3.4 0 6.1-.6 8-1.7s2.8-2.7 2.8-4.6-.9-3.4-2.8-4.6-5-2.3-9.4-3.1c-11.5-2.2-17.3-6.9-17.3-14.2 0-2.9.9-5.4 2.6-7.5s4-3.6 6.8-4.6c2.9-1 5.8-1.5 9-1.5m0-.2c-3.2 0-6.2.5-9.1 1.5s-5.2 2.6-6.9 4.7c-1.8 2.1-2.7 4.6-2.7 7.6 0 7.4 5.9 12.2 17.5 14.4 4.4.8 7.5 1.9 9.4 3.1 1.8 1.2 2.7 2.6 2.7 4.4s-.9 3.3-2.7 4.4-4.5 1.7-7.8 1.7c-2.5 0-5-.5-7.2-1.4s-3.9-2-5-3.2c-1.1-1.1-2.3-1.7-3.6-1.7-1 0-2.1.4-3.3 1.3-1.3.9-1.9 2.2-1.9 3.7q0 1.65 1.2 3c2 2.1 4.9 3.7 8.5 5s7.5 1.9 11.6 1.9 7.6-.7 10.6-1.9c2.9-1.3 5.2-3.1 6.7-5.4s2.3-4.8 2.3-7.6q0-5.7-4.2-9.3c-2.8-2.3-7.5-4.2-14-5.5-3.1-.7-5.6-1.3-7.2-2s-2.7-1.4-3.3-2.2-.9-1.7-.9-2.9c0-1.6.8-2.8 2.5-3.7s4-1.4 6.7-1.4c2.4 0 4.4.3 6 .8 1.6.6 3.2 1.5 4.7 2.9 1.3 1.2 2.8 1.8 4.4 1.8 1.1 0 2-.3 2.7-.8 1.1-.9 1.6-1.9 1.6-3q0-1.5-1.2-3c-1.8-2.2-4.3-4-7.4-5.3-3.2-1.3-6.8-1.9-10.7-1.9" class="st8"/><path d="M454.3 12.4c0-3.4 2.7-6.1 6.1-6.1s6.1 2.7 6.1 6.1-2.7 6.1-6.1 6.1-6.1-2.8-6.1-6.1zm.9 0c0 2.8 2.3 5.2 5.2 5.2s5.2-2.3 5.2-5.2-2.3-5.2-5.2-5.2-5.2 2.3-5.2 5.2zm5 .7H459v2.8h-1v-7h2.8c1.2 0 2.3.8 2.3 2.1 0 1.5-1.4 2.1-1.8 2.1l1.9 2.8H462l-1.8-2.8zM459 9.8v2.5h1.9c.7 0 1.3-.5 1.3-1.2 0-.8-.6-1.3-1.3-1.3z" style="fill:#595959;stroke:#595959;stroke-width:.25;stroke-miterlimit:10"/></g></svg>
